<?xml version="1.0" encoding="utf-8"?>
<!-- Generator: Adobe Illustrator 23.0.1, SVG Export Plug-In . SVG Version: 6.00 Build 0)  -->
<svg version="1.1" id="Layer_1" xmlns="http://www.w3.org/2000/svg" xmlns:xlink="http://www.w3.org/1999/xlink" x="0px" y="0px"
	 viewBox="0 0 314.1 93.3" style="enable-background:new 0 0 314.1 93.3;" xml:space="preserve">
<style type="text/css">
	.st0{fill:url(#SVGID_1_);}
	.st1{fill:#58595B;}
</style>
<linearGradient id="SVGID_1_" gradientUnits="userSpaceOnUse" x1="0" y1="51.6087" x2="314.1436" y2="51.6087" gradientTransform="matrix(1 0 0 -1 0 94.3975)">
	<stop  offset="0" style="stop-color:#4CC8EF"/>
	<stop  offset="1" style="stop-color:#138CBC"/>
</linearGradient>
<path class="st0" d="M57.4,73.1c-4.5,12.2-23.2,5.4-18.7-7c3.5-9.5,6.3-31.7-6.8-36c-5.3-1.7-9,3.8-10.5,8.1c-2.2,6.4-2,13.5-0.7,20
	c0.1,0.7,0.3,1.8,0.3,2.2C21,67.7,9.6,68.8,7.7,61.1c-1.9-7.8-2.3-16.7-3.4-24.7C3.4,29.4-2.2,21.4,1,14.9c1.5-3.1,7.2-5.7,10.6-1.5
	c1.1,1.3,1.9,2.9,2.5,4.5c4.7-4.6,10.9-7.5,17.8-7.4c13.4,0.2,23.4,11.1,27.1,23.2C62.8,46.7,62.1,60.4,57.4,73.1z M109.9,27.8
	c0.3,1.3,0.2,2.7-0.2,4.2c-0.2,0.5-0.3,1.1-0.5,1.6c-0.3,1.5-0.7,2.9-1.1,4.3c-1.5,6.2-2.2,13-0.9,19.1c4.1,6.7-3.6,15.1-10.2,12.2
	c-13.2,3.9-31.6-4.7-33.1-18.5c-0.9-8.7,5-16.4,12.9-19.4c5.3-2,10.7-1.7,15.8-0.2c0.2-0.6,0.3-1.2,0.5-1.8c0.2-2,0.6-6.6-1.1-8
	c-3.8-3-9.6,4.6-11.4,6.8c-2.8,3.5-8.9,2.9-11.8,0c-3.4-3.4-2.8-8.3,0-11.8c8-9.9,23.1-17.4,34.3-7.3
	C108.4,13.7,110.2,20.7,109.9,27.8z M90.1,53.4c0-1.8,0-3.6,0-5.3c0-0.1,0-0.3,0-0.4c-3.8-1.2-10-2.4-9.8,1.2
	C80.4,50.9,86.2,53.3,90.1,53.4z M140.9,24.8c0.6-0.1,1.2-0.3,1.7-0.5c0.2,0,0.3,0,0.5,0c7.9,5.9,18.7-5.4,11-12.4
	c-8.2-7.5-19.9-4.2-29,1.9c-2.1-1.4-4.9-1.9-7.2-1.3c-4.8,1.3-6.5,5.8-5.8,10.3c1,6.8,1.9,13.5,2.9,20.3c0.8,5.9,2.5,12.3,0.5,18.1
	c-3.5,10.2,12.6,14.5,16.1,4.4c2.6-7.7,1.1-15.5,0-23.3c-0.5-3.7-1.1-7.4-1.6-11.2c1.8-1.7,3.7-3.2,6-4.4
	C137.6,25.9,139.2,25.2,140.9,24.8z M169.3,22.1c5.1,7.3,8.6,15.6,9.4,24.5c0.3,3.7,0.8,8.5-0.7,12c-0.4,1-0.9,1.5-1.6,2
	c-0.3-0.6-0.5-1-0.8-1.9c-1.9-6.5-8.9-7.2-13.2-4.2c-2.1,1.3-3.7,3.5-3.7,6.8c0,4.5-3.8,1.9-4.7-0.8c-1.8-5.6-0.6-12.6,0.7-18.2
	c2.4-10.5-13.7-14.9-16.1-4.4c-2.9,12.5-4.5,30.5,7.3,39.1c7.7,5.5,16.8,4.1,22.9-1.2c2.4,1.3,5.1,2,8.2,1.8
	c8.9-0.5,15.4-7.7,17.4-16c4-16-1.7-34.7-10.8-47.8C177.6,5,163.1,13.3,169.3,22.1z M212.5,21.2c-1.2-4.9-2.7-9.8-4.8-14.5
	c-1.8-4.1-7.8-5.1-11.4-3c-4.2,2.5-4.8,7.3-3,11.4c3.3,7.4,4.6,16.1,5.5,24.1c0.5,4.2,0.8,8.5,0.9,12.8c0.1,2.8,0.5,6.2,0.3,9.1
	c0,0-0.1,0.1-0.1,0.1c-2.1,2.7-1.2,7.9,1.3,10.1c0.1,0.1,0.2,0.2,0.3,0.3c3.4,2.9,8.4,3.4,11.8,0c3.7-3.7,3.1-9.3,3.1-14.2
	c0-5.8-0.3-11.6-0.9-17.3c-0.1-0.7-0.2-1.5-0.2-2.2c4.4-2.5,11.1-3.9,13.8,1.2c1.9,3.6-0.4,9.1-1.3,12.7c-1.2,4.6-2.4,9.3-3.6,13.9
	c-2.7,10.4,13.4,14.8,16.1,4.4c3.5-13.6,11.4-31.8-0.1-43.7C232.4,18.6,221.9,17.8,212.5,21.2z M293.4,35.2c0.3,1.3,0.2,2.7-0.2,4.2
	c-0.2,0.5-0.3,1.1-0.5,1.6c-0.3,1.5-0.7,2.9-1.1,4.3c-1.5,6.2-2.2,13-0.9,19.1c4.1,6.7-3.6,15.1-10.2,12.2
	c-13.1,3.9-31.6-4.7-33.1-18.5c-0.9-8.7,5-16.4,12.9-19.4c5.3-2,10.7-1.7,15.8-0.2c0.2-0.6,0.3-1.2,0.5-1.8c0.2-2,0.6-6.6-1.1-8
	c-3.8-3-9.6,4.6-11.4,6.8c-2.8,3.5-8.9,2.9-11.8,0c-3.4-3.4-2.8-8.3,0-11.8c8-9.9,23.1-17.4,34.3-7.3
	C291.8,21.2,293.7,28.2,293.4,35.2z M273.5,60.9c0-1.8,0-3.6,0-5.3c0-0.1,0-0.3,0-0.4c-3.8-1.2-10-2.4-9.8,1.2
	C263.8,58.4,269.6,60.8,273.5,60.9z M297.5,8.1c-0.2,23.1-0.5,46.3-0.8,69.5c-0.1,10.7,16.6,10.8,16.7,0c0.2-23.2,0.5-46.3,0.8-69.5
	C314.3-2.7,297.6-2.7,297.5,8.1z"/>
<g>
	<path class="st1" d="M60.8,93.3l3.4-8.5h0.6l3.4,8.5h-0.4c0,0-0.1,0-0.1-0.1c0,0,0-0.1-0.1-0.1l-1-2.4h-4.2l-1,2.5
		c0,0,0,0.1-0.1,0.1c0,0-0.1,0-0.2,0L60.8,93.3L60.8,93.3z M62.7,90.3h3.8L64.8,86c0-0.1-0.1-0.1-0.1-0.2c0,0,0-0.1-0.1-0.1
		s0-0.1-0.1-0.1c0,0.1,0,0.2-0.1,0.3c0,0,0,0.1-0.1,0.1c0,0.1,0,0.1,0,0.1L62.7,90.3z"/>
	<path class="st1" d="M72,93.3v-8.5h2.4c0.5,0,0.9,0.1,1.3,0.1c0.3,0.1,0.6,0.2,0.9,0.4c0.2,0.2,0.4,0.4,0.5,0.7s0.2,0.6,0.2,0.9
		c0,0.2,0,0.4-0.1,0.7c-0.1,0.2-0.2,0.4-0.3,0.6c-0.2,0.2-0.3,0.3-0.5,0.5c-0.2,0.1-0.4,0.2-0.7,0.3c0.7,0.1,1.2,0.3,1.5,0.7
		s0.5,0.8,0.5,1.4c0,0.4-0.1,0.7-0.2,1c-0.1,0.3-0.3,0.5-0.6,0.7c-0.2,0.2-0.5,0.4-0.9,0.5s-0.8,0.2-1.2,0.2L72,93.3L72,93.3z
		 M72.6,88.8h1.8c0.4,0,0.7-0.1,1-0.2c0.3-0.1,0.5-0.2,0.7-0.4s0.3-0.3,0.4-0.6c0.1-0.2,0.1-0.4,0.1-0.7c0-0.6-0.2-1-0.6-1.3
		s-0.9-0.4-1.7-0.4h-1.8C72.6,85.3,72.6,88.8,72.6,88.8z M72.6,92.9h2.1c0.7,0,1.3-0.2,1.7-0.5c0.4-0.3,0.6-0.8,0.6-1.4
		c0-0.3-0.1-0.5-0.2-0.7c-0.1-0.2-0.2-0.4-0.4-0.5c-0.2-0.2-0.4-0.3-0.7-0.3s-0.6-0.1-1-0.1h-2.1L72.6,92.9L72.6,92.9z"/>
	<path class="st1" d="M78.6,93.3l3.4-8.5h0.6l3.4,8.5h-0.4c0,0-0.1,0-0.1-0.1c0,0,0-0.1-0.1-0.1l-1-2.4h-4.2l-1,2.5
		c0,0,0,0.1-0.1,0.1c0,0-0.1,0-0.2,0L78.6,93.3L78.6,93.3z M80.4,90.3h3.8L82.5,86c0-0.1-0.1-0.1-0.1-0.2c0,0,0-0.1-0.1-0.1
		s0-0.1-0.1-0.1c0,0.1,0,0.2-0.1,0.3c0,0,0,0.1-0.1,0.1c0,0.1,0,0.1,0,0.1L80.4,90.3z"/>
	<path class="st1" d="M86.7,92.4l0.2-0.3C86.9,92,87,92,87.1,92c0,0,0.1,0,0.1,0.1l0.2,0.2c0,0,0.1,0.1,0.3,0.2
		c0.1,0.1,0.2,0.2,0.4,0.2c0.1,0.1,0.3,0.1,0.5,0.2C88.8,93,89,93,89.3,93c0.3,0,0.6-0.1,0.9-0.2c0.3-0.1,0.5-0.2,0.7-0.4
		c0.2-0.2,0.3-0.4,0.4-0.6c0.1-0.2,0.2-0.5,0.2-0.8c0-0.3-0.1-0.6-0.2-0.8c-0.1-0.2-0.3-0.3-0.5-0.5c-0.2-0.1-0.4-0.2-0.7-0.3
		c-0.1,0-0.2-0.1-0.3-0.1c-0.2-0.1-0.3-0.1-0.4-0.2c-0.3-0.1-0.6-0.2-0.8-0.3c-0.3-0.1-0.5-0.2-0.7-0.4c-0.2-0.2-0.4-0.4-0.5-0.6
		c-0.1-0.2-0.2-0.5-0.2-0.9c0-0.3,0.1-0.6,0.2-0.8c0.1-0.3,0.3-0.5,0.5-0.7c0.2-0.2,0.5-0.4,0.8-0.5c0.3-0.1,0.7-0.2,1.1-0.2
		c0.4,0,0.8,0.1,1.2,0.2c0.4,0.1,0.7,0.4,1,0.7l-0.2,0.3c0,0.1-0.1,0.1-0.2,0.1c-0.1,0-0.1,0-0.2-0.1c-0.1-0.1-0.2-0.2-0.3-0.2
		c-0.2-0.1-0.3-0.2-0.5-0.2c-0.2-0.1-0.5-0.1-0.8-0.1c-0.3,0-0.6,0-0.8,0.1c-0.2,0.1-0.4,0.2-0.6,0.4s-0.3,0.3-0.4,0.5
		s-0.1,0.4-0.1,0.6c0,0.3,0.1,0.5,0.2,0.7c0.1,0.2,0.3,0.3,0.5,0.5c0.2,0.1,0.4,0.2,0.7,0.3l0.8,0.3c0.3,0.1,0.6,0.2,0.8,0.3
		c0.2,0.1,0.5,0.2,0.7,0.4c0.2,0.2,0.4,0.3,0.5,0.6c0.1,0.2,0.2,0.5,0.2,0.9s-0.1,0.7-0.2,1c-0.1,0.3-0.3,0.6-0.5,0.8
		c-0.2,0.2-0.5,0.4-0.9,0.5c-0.3,0.1-0.7,0.2-1.2,0.2c-0.5,0-1-0.1-1.5-0.3C87.4,93,87,92.7,86.7,92.4z"/>
	<path class="st1" d="M93.7,93.3v-8.5h5.1v0.5h-4.5v3.5H98v0.5h-3.7v3.6h4.5v0.5L93.7,93.3L93.7,93.3z"/>
	<path class="st1" d="M102.1,85.4v-0.5h6.6v0.5h-3v8h-0.6v-8H102.1z"/>
	<path class="st1" d="M110.1,93.3v-8.5h0.6v4h5.3v-4h0.6v8.5h-0.6v-4.1h-5.3v4.1H110.1z"/>
	<path class="st1" d="M119.2,93.3v-8.5h5.1v0.5h-4.5v3.5h3.7v0.5h-3.7v3.6h4.5v0.5L119.2,93.3L119.2,93.3z"/>
	<path class="st1" d="M126.3,93.3v-8.5h0.4c0,0,0.1,0,0.1,0c0,0,0.1,0,0.1,0.1l3.4,5.9c0.1,0.1,0.1,0.2,0.2,0.4c0,0,0-0.1,0-0.1
		c0-0.1,0-0.1,0-0.1s0-0.1,0.1-0.2L134,85c0-0.1,0.1-0.1,0.1-0.1c0.1,0,0.1,0,0.1,0h0.4v8.5h-0.5v-7.2c0-0.1,0-0.2,0-0.3l-3.3,5.9
		c-0.1,0.1-0.1,0.2-0.2,0.2h-0.1c-0.1,0-0.2-0.1-0.2-0.2l-3.4-5.9c0,0.2,0,0.3,0,0.3v7.2L126.3,93.3L126.3,93.3z"/>
	<path class="st1" d="M137.2,93.3v-8.5h5.1v0.5h-4.5v3.5h3.7v0.5h-3.7v3.6h4.5v0.5L137.2,93.3L137.2,93.3z"/>
	<path class="st1" d="M146.6,93.3v-8.5h2.4c0.5,0,0.9,0.1,1.3,0.1c0.4,0.1,0.6,0.2,0.9,0.4c0.2,0.2,0.4,0.4,0.5,0.7s0.2,0.6,0.2,0.9
		c0,0.2,0,0.4-0.1,0.7c-0.1,0.2-0.2,0.4-0.3,0.6c-0.1,0.2-0.3,0.3-0.5,0.5c-0.2,0.1-0.4,0.2-0.7,0.3c0.7,0.1,1.2,0.3,1.5,0.7
		s0.5,0.8,0.5,1.4c0,0.4-0.1,0.7-0.2,1c-0.1,0.3-0.3,0.5-0.6,0.7c-0.2,0.2-0.5,0.4-0.9,0.5c-0.3,0.1-0.8,0.2-1.2,0.2L146.6,93.3
		L146.6,93.3z M147.2,88.8h1.9c0.4,0,0.7-0.1,1-0.2c0.3-0.1,0.5-0.2,0.7-0.4s0.3-0.3,0.4-0.6c0.1-0.2,0.1-0.4,0.1-0.7
		c0-0.6-0.2-1-0.6-1.3s-0.9-0.4-1.7-0.4h-1.8V88.8z M147.2,92.9h2.1c0.7,0,1.3-0.2,1.7-0.5c0.4-0.3,0.6-0.8,0.6-1.4
		c0-0.3-0.1-0.5-0.2-0.7c-0.1-0.2-0.2-0.4-0.4-0.5s-0.4-0.3-0.7-0.3s-0.6-0.1-1-0.1h-2.1L147.2,92.9L147.2,92.9z"/>
	<path class="st1" d="M153.2,84.8h0.6c0,0,0.1,0,0.1,0c0,0,0,0.1,0.1,0.1l2.5,3.9c0.1,0.1,0.1,0.2,0.1,0.3l0.1,0.3l0.1-0.3
		c0-0.1,0.1-0.2,0.1-0.3l2.4-3.9c0-0.1,0.1-0.1,0.1-0.1c0.1,0,0.1,0,0.1,0h0.5l-3.1,5v3.5h-0.6v-3.5L153.2,84.8z"/>
	<path class="st1" d="M162.7,86v-1.3h6.8V86h-2.6v7.4h-1.6V86H162.7z"/>
	<path class="st1" d="M170.6,93.3v-8.7h2.7c0.6,0,1.1,0.1,1.5,0.2c0.4,0.1,0.8,0.3,1,0.5c0.3,0.2,0.5,0.5,0.6,0.8
		c0.1,0.3,0.2,0.7,0.2,1c0,0.3,0,0.6-0.1,0.9c-0.1,0.3-0.2,0.5-0.4,0.7c-0.2,0.2-0.4,0.4-0.6,0.6c-0.2,0.2-0.5,0.3-0.8,0.4
		c0.2,0.1,0.4,0.2,0.5,0.4l2.2,3.2h-1.5c-0.1,0-0.3,0-0.4-0.1c-0.1-0.1-0.1-0.2-0.2-0.3l-1.9-2.7c-0.1-0.1-0.1-0.1-0.2-0.2
		s-0.2,0-0.4,0h-0.7v3.3L170.6,93.3L170.6,93.3z M172.2,88.8h1c0.3,0,0.6,0,0.8-0.1c0.2-0.1,0.4-0.2,0.6-0.3
		c0.1-0.1,0.2-0.3,0.3-0.5s0.1-0.4,0.1-0.6c0-0.4-0.1-0.8-0.4-1c-0.3-0.2-0.7-0.3-1.3-0.3h-1L172.2,88.8L172.2,88.8z"/>
	<path class="st1" d="M178.6,93.3v-8.7h1.6v8.7H178.6z"/>
	<path class="st1" d="M182.2,93.3v-8.7h3c0.6,0,1.1,0.1,1.5,0.2c0.4,0.1,0.7,0.3,1,0.5c0.3,0.2,0.5,0.4,0.6,0.7
		c0.1,0.3,0.2,0.6,0.2,1c0,0.2,0,0.4-0.1,0.6s-0.1,0.3-0.3,0.5c-0.1,0.1-0.3,0.3-0.5,0.4c-0.2,0.1-0.4,0.2-0.7,0.3
		c1.2,0.3,1.8,0.9,1.8,1.9c0,0.4-0.1,0.7-0.2,1c-0.1,0.3-0.4,0.6-0.6,0.8c-0.2,0.2-0.6,0.4-1,0.5c-0.4,0.1-0.8,0.2-1.3,0.2
		L182.2,93.3L182.2,93.3z M183.8,88.4h1.3c0.6,0,1-0.1,1.2-0.3c0.3-0.2,0.4-0.5,0.4-0.9c0-0.4-0.1-0.8-0.4-1s-0.7-0.3-1.2-0.3h-1.4
		V88.4z M183.8,92.1h1.6c0.3,0,0.6,0,0.8-0.1c0.2-0.1,0.4-0.2,0.5-0.3c0.1-0.1,0.2-0.3,0.3-0.4c0.1-0.2,0.1-0.3,0.1-0.5
		c0-0.2,0-0.3-0.1-0.5c-0.1-0.2-0.1-0.3-0.3-0.4c-0.1-0.1-0.3-0.2-0.5-0.2c-0.2-0.1-0.4-0.1-0.7-0.1h-1.6L183.8,92.1L183.8,92.1z"/>
	<path class="st1" d="M189.9,89.9v-5.2h1.6v5.3c0,0.4,0,0.7,0.1,0.9c0.1,0.3,0.2,0.5,0.4,0.7c0.1,0.2,0.4,0.3,0.6,0.4
		c0.2,0.1,0.5,0.2,0.8,0.2s0.6-0.1,0.8-0.2c0.3-0.1,0.5-0.3,0.6-0.4c0.1-0.2,0.3-0.4,0.4-0.7c0.1-0.3,0.1-0.6,0.1-0.9v-5.3h1.6v5.2
		c0,0.5-0.1,1-0.2,1.4c-0.2,0.5-0.4,0.8-0.7,1.1c-0.3,0.3-0.7,0.6-1.1,0.7c-0.4,0.2-0.9,0.3-1.5,0.3s-1.1-0.1-1.5-0.3
		c-0.4-0.2-0.8-0.4-1.1-0.7c-0.3-0.3-0.5-0.7-0.7-1.1C189.9,90.9,189.9,90.4,189.9,89.9z"/>
	<path class="st1" d="M198,86v-1.3h6.8V86h-2.6v7.4h-1.6V86H198z"/>
	<path class="st1" d="M205.8,93.3v-8.7h5.5v1.3h-3.9v2.4h3v1.3h-3v2.5h3.9v1.3L205.8,93.3L205.8,93.3z"/>
	<path class="st1" d="M215,93.3v-8.7h1.2c0,0,0.1,0,0.1,0s0.1,0,0.1,0c0,0,0.1,0,0.1,0c0,0,0.1,0,0.1,0.1c0,0,0.1,0.1,0.1,0.1
		l2.6,4.8c0.1,0.1,0.1,0.3,0.2,0.4l0.2,0.4c0-0.1,0-0.1,0.1-0.2s0.1-0.2,0.1-0.2c0.1-0.1,0.1-0.3,0.2-0.4l2.6-4.8
		c0-0.1,0.1-0.1,0.1-0.1c0,0,0.1-0.1,0.1-0.1c0.1,0,0.1,0,0.1,0c0,0,0,0,0.1,0s0.1,0,0.1,0h1.2v8.7H223v-5.6c0,0,0-0.1,0-0.2
		s0-0.1,0-0.2c0-0.1,0-0.1,0-0.2s0-0.2,0-0.2l-2.6,4.9c-0.1,0.1-0.1,0.2-0.2,0.3c-0.1,0.1-0.2,0.1-0.3,0.1h-0.2
		c-0.1,0-0.2,0-0.3-0.1c-0.1-0.1-0.1-0.1-0.2-0.3l-2.7-4.9c0,0,0,0.1,0,0.2s0,0.2,0,0.2c0,0,0,0.1,0,0.2s0,0.1,0,0.2v5.6L215,93.3
		L215,93.3z"/>
	<path class="st1" d="M226.2,93.3v-8.7h5.5v1.3h-3.9v2.4h3v1.3h-3v2.5h3.9v1.3L226.2,93.3L226.2,93.3z"/>
	<path class="st1" d="M233,93.3v-8.7h3.3c0.6,0,1.2,0.1,1.8,0.3c0.6,0.2,1,0.5,1.4,0.9s0.7,0.8,0.9,1.4c0.2,0.5,0.3,1.1,0.3,1.8
		s-0.1,1.2-0.3,1.8c-0.2,0.6-0.5,1-0.9,1.4c-0.4,0.4-0.8,0.7-1.4,0.9c-0.5,0.2-1.1,0.3-1.8,0.3L233,93.3L233,93.3z M234.7,92.1h1.7
		c0.4,0,0.8-0.1,1.1-0.2c0.3-0.1,0.6-0.3,0.9-0.6s0.4-0.6,0.6-1s0.2-0.8,0.2-1.3c0-0.5-0.1-0.9-0.2-1.3s-0.3-0.7-0.6-1
		c-0.2-0.2-0.5-0.4-0.9-0.6c-0.3-0.1-0.7-0.2-1.1-0.2h-1.7L234.7,92.1L234.7,92.1z"/>
	<path class="st1" d="M242.2,93.3v-8.7h1.6v8.7H242.2z"/>
	<path class="st1" d="M244.9,93.3l3.3-8.7h1.8l3.3,8.7h-1.2c-0.1,0-0.2,0-0.3-0.1c-0.1-0.1-0.1-0.2-0.2-0.2l-0.6-1.8h-3.6l-0.7,1.8
		c0,0.1-0.1,0.2-0.1,0.3c-0.1,0.1-0.2,0.1-0.4,0.1C246.2,93.3,244.9,93.3,244.9,93.3z M247.7,90.1h2.8l-1.1-2.9l-0.2-0.4
		c0,0-0.1-0.2-0.2-0.6c0,0,0,0.1-0.1,0.3c0,0.1-0.1,0.2-0.1,0.3c0,0-0.1,0.2-0.2,0.5L247.7,90.1z"/>
</g>
</svg>
