<?xml version="1.0" encoding="utf-8"?>
<!-- Generator: Adobe Illustrator 23.0.3, SVG Export Plug-In . SVG Version: 6.00 Build 0)  -->
<svg version="1.1" id="_x32_" xmlns="http://www.w3.org/2000/svg" xmlns:xlink="http://www.w3.org/1999/xlink" x="0px" y="0px"
	 viewBox="0 0 154.6 139" style="enable-background:new 0 0 154.6 139;" xml:space="preserve">
<style type="text/css">
	.st0{fill:#4D6167;}
</style>
<g>
	<polygon class="st0" points="31.7,66.3 31.7,33.3 31.7,21 49.9,21 106.1,21 124.3,21 124.3,33.3 124.3,66.3 139.4,56.2 143.4,49.8 
		143.4,49.8 139.4,43.4 129.5,36.7 129.5,15.8 98.4,15.8 78.1,2.1 77.9,2.1 57.6,15.8 26.5,15.8 26.5,36.7 16.6,43.4 12.6,49.8 
		12.6,49.8 16.6,56.2 	"/>
	<path class="st0" d="M145.9,55.3l-2.8,4.5L99.1,89.3l45.9,43.4c0.5-1,0.8-2.2,0.8-3.4V55.5C145.9,55.4,145.9,55.3,145.9,55.3z"/>
	<path class="st0" d="M13,59.7l-2.8-4.5c0,0.1,0,0.2,0,0.2v73.7c0,1.2,0.3,2.4,0.8,3.4l45.9-43.4L13,59.7z"/>
	<path class="st0" d="M78,103.5L61.1,92.1l-46.7,44.1c1,0.5,2.2,0.8,3.4,0.8h120.3c1.2,0,2.4-0.3,3.4-0.8L94.9,92.1L78,103.5z"/>
	<path class="st0" d="M71,41.3c-4.4,2.5-7.1,8.5-7.6,13.4c-0.6,5.1,0.7,11.3,5.8,13.6c3.9,1.8,8.9,0.8,11.6-2.6
		c4.3,7.4,15.1,1.7,18.9-4.4c3.9-6.2,4.7-14,1.6-20.7C96.8,30.9,84.7,27.7,75,29.1C62.3,30.9,53.5,42.2,53.2,55
		C53,67.6,60.4,77.3,72.6,79.8c10,2.1,22.2-0.2,29.1-8.2c1.3-1.5,0-4-2-3.6c0,0,0,0,0,0c-1.3,0.3-2,1.2-3.1,2
		c-2.9,2.2-6.2,3.7-9.7,4.6c-5.5,1.3-11.8,1.3-17.1-0.7c-10.9-4.2-13.8-17.2-9.8-27.5c3.6-9.3,13.8-14,23.2-12.4
		c11.5,1.9,18.5,11.8,13.1,23c-1,2.1-2.7,5-5.2,5.3c-2.6,0.4-3.4-1.5-3.1-3.7c0.7-5.1,2.6-10,3.5-15.2c0.3-1.6-0.9-3.1-2.5-3.2
		c-2.5-0.1-5.1,0-4.8,3.2C81.3,39.2,75.1,38.9,71,41.3z M79.7,61.7c-4.3,4.6-9.6,1.7-9.5-4.2c-0.1-4.2,1-10.4,5.4-12.3
		c4-1.7,7.2,1.7,7.5,5.5C83.3,54.3,82.2,59,79.7,61.7z"/>
</g>
</svg>
