<?xml version="1.0" encoding="utf-8"?>
<!-- Generator: Adobe Illustrator 23.0.0, SVG Export Plug-In . SVG Version: 6.00 Build 0)  -->
<svg version="1.1" id="_x32_" xmlns="http://www.w3.org/2000/svg" xmlns:xlink="http://www.w3.org/1999/xlink" x="0px" y="0px"
	 viewBox="0 0 154.58 139.01" style="enable-background:new 0 0 154.58 139.01;" xml:space="preserve">
<style type="text/css">
	.st0{fill:#3C5A99;}
</style>
<g>
	<path class="st0" d="M88.6,0h6.58c4.9,0.24,16.87,0.34,21.75,0.84l-4.29,21.79c-6.56,0.33-16.13-0.78-22.5,1.29
		c-3.19,1-5.23,4.2-5.43,7.46c-0.54,6.53-0.19,13.09-0.17,19.64c8.09,0.17,16.18,0.04,24.27,0.09l-0.13,24.25l-24.21,0
		c-0.01,21.22,0,42.44,0,63.66H59.06c0-21.22,0.01-42.44,0-63.65c-7.13-0.01-14.27-0.01-21.41,0V51.09
		c7.12-0.01,14.23,0.07,21.35-0.08c0.53-9.93-1.06-20.13,1.56-29.87c1.5-5.67,4.75-10.9,9.36-14.57C75.19,2.35,81.96,0.51,88.6,0z"
		/>
</g>
</svg>
