<?xml version="1.0" encoding="utf-8"?>
<!-- Generator: Adobe Illustrator 23.0.3, SVG Export Plug-In . SVG Version: 6.00 Build 0)  -->
<svg version="1.1" id="_x32_" xmlns="http://www.w3.org/2000/svg" xmlns:xlink="http://www.w3.org/1999/xlink" x="0px" y="0px"
	 viewBox="0 0 154.6 139" style="enable-background:new 0 0 154.6 139;" xml:space="preserve">
<style type="text/css">
	.st0{fill:#FFFFFF;}
</style>
<g>
	<path class="st0" d="M88.6,0h6.6c4.9,0.2,16.9,0.3,21.8,0.8l-4.3,21.8c-6.6,0.3-16.1-0.8-22.5,1.3c-3.2,1-5.2,4.2-5.4,7.5
		c-0.5,6.5-0.2,13.1-0.2,19.6c8.1,0.2,16.2,0,24.3,0.1l-0.1,24.2H84.5c0,21.2,0,42.4,0,63.7H59.1c0-21.2,0-42.4,0-63.7
		c-7.1,0-14.3,0-21.4,0V51.1c7.1,0,14.2,0.1,21.3-0.1c0.5-9.9-1.1-20.1,1.6-29.9c1.5-5.7,4.7-10.9,9.4-14.6C75.2,2.3,82,0.5,88.6,0z
		"/>
</g>
</svg>
