<svg xmlns="http://www.w3.org/2000/svg" xmlns:xlink="http://www.w3.org/1999/xlink" width="24" height="24" viewBox="0 0 24 24"><defs><style>.a{fill:url(#a);}.b{fill:url(#b);}.c{fill:url(#c);}</style><radialGradient id="a" cx="-2.148" cy="25.068" r="44.286" gradientUnits="userSpaceOnUse"><stop offset="0" stop-color="#f9ed41"/><stop offset="0.241" stop-color="#ff833d"/><stop offset="0.401" stop-color="#ee5568"/><stop offset="0.489" stop-color="#e7407b"/><stop offset="1" stop-color="#0028ff"/></radialGradient><radialGradient id="b" cx="10.914" cy="38.183" r="44.373" xlink:href="#a"/><radialGradient id="c" cx="35.748" cy="33.147" r="44.197" xlink:href="#a"/></defs><path class="a" d="M16.644,24H7.356A7.369,7.369,0,0,1,0,16.644V7.356A7.369,7.369,0,0,1,7.356,0h9.319A7.363,7.363,0,0,1,24,7.356v9.319A7.363,7.363,0,0,1,16.644,24ZM7.356,1.808A5.56,5.56,0,0,0,1.808,7.356v9.319a5.56,5.56,0,0,0,5.548,5.548h9.319a5.56,5.56,0,0,0,5.548-5.548V7.356a5.56,5.56,0,0,0-5.548-5.548H7.356Z"/><path class="b" d="M25.09,31.18a6.09,6.09,0,1,1,6.09-6.09A6.1,6.1,0,0,1,25.09,31.18Zm0-10.337a4.247,4.247,0,1,0,4.247,4.247A4.252,4.252,0,0,0,25.09,20.843Z" transform="translate(-13.09 -13.09)"/><path class="c" d="M58.173,13.386A1.586,1.586,0,1,1,56.586,11.8,1.593,1.593,0,0,1,58.173,13.386Z" transform="translate(-37.852 -8.121)"/></svg>