<?xml version="1.0" encoding="utf-8"?>
<!-- Generator: Adobe Illustrator 23.0.3, SVG Export Plug-In . SVG Version: 6.00 Build 0)  -->
<svg version="1.1" id="Layer_1" xmlns="http://www.w3.org/2000/svg" xmlns:xlink="http://www.w3.org/1999/xlink" x="0px" y="0px"
	 viewBox="0 0 24 24" style="enable-background:new 0 0 24 24;" xml:space="preserve">
<style type="text/css">
	.st0{fill:#FFFFFF;}
</style>
<path class="st0" d="M16.6,24H7.4C3.3,24,0,20.7,0,16.6V7.4C0,3.3,3.3,0,7.4,0h9.3c4,0,7.3,3.3,7.3,7.4v9.3C24,20.7,20.7,24,16.6,24
	z M7.4,1.8c-3.1,0-5.5,2.5-5.5,5.5v9.3c0,3.1,2.5,5.5,5.5,5.5h9.3c3.1,0,5.5-2.5,5.5-5.5V7.4c0-3.1-2.5-5.5-5.5-5.5
	C16.7,1.8,7.4,1.8,7.4,1.8z"/>
<path class="st0" d="M12,18.1c-3.4,0-6.1-2.7-6.1-6.1S8.6,5.9,12,5.9s6.1,2.7,6.1,6.1S15.4,18.1,12,18.1z M12,7.8
	c-2.3,0-4.2,1.9-4.2,4.2s1.9,4.2,4.2,4.2s4.2-1.9,4.2-4.2l0,0C16.2,9.7,14.3,7.8,12,7.8z"/>
<path class="st0" d="M20.3,5.3c0,0.9-0.7,1.6-1.6,1.6s-1.6-0.7-1.6-1.6s0.7-1.6,1.6-1.6C19.6,3.7,20.3,4.4,20.3,5.3z"/>
</svg>
