<?xml version="1.0" encoding="utf-8"?>
<!-- Generator: Adobe Illustrator 23.0.3, SVG Export Plug-In . SVG Version: 6.00 Build 0)  -->
<svg version="1.1" id="Layer_1" xmlns="http://www.w3.org/2000/svg" xmlns:xlink="http://www.w3.org/1999/xlink" x="0px" y="0px"
	 viewBox="0 0 154.6 139" style="enable-background:new 0 0 154.6 139;" xml:space="preserve">
<style type="text/css">
	.st0{fill:#0077B5;}
</style>
<g id="_x31_">
	<g>
		<g>
			<polygon class="st0" points="9.6,136.9 24.5,136.9 39.4,136.9 39.4,92.1 39.4,47.3 24.5,47.3 9.6,47.3 9.6,92.1 			"/>
		</g>
		<g>
			<path class="st0" d="M112.5,45.2c-7.9,0-13.6,2.2-17.9,5.1s-7,6.6-9,9.7v0.2v0.2h-0.1h-0.1c0,0,0.1-0.1,0.1-0.2
				c0,0,0.1-0.1,0.1-0.2v-6.3v-6.4H70.7H55.8c0.2,4.2,0.2,26.6,0.2,48s-0.2,41.7-0.2,41.7h14.9h14.9v-25v-25c0-1.3,0.1-2.7,0.2-3.9
				c0.2-1.2,0.4-2.4,0.8-3.3c1.1-2.7,2.8-5.4,5.4-7.5c2.5-2.1,5.8-3.4,9.9-3.4c5.4,0,9.2,2.1,11.6,5.6c2.4,3.6,3.5,8.6,3.5,14.7v24
				v24h14.9h14.9v-25.7V85.5c0-13.8-3.7-23.8-9.8-30.5C130.9,48.4,122.3,45.2,112.5,45.2z"/>
		</g>
		<g>
			<path class="st0" d="M24.7,4.1c-5.1,0-9.3,1.7-12.2,4.4c-2.9,2.8-4.6,6.6-4.6,11c0,4.3,1.6,8.2,4.5,11s7,4.5,12,4.5h0.1h0.1
				c5.2,0,9.4-1.7,12.3-4.5s4.5-6.7,4.5-11c-0.1-4.4-1.7-8.3-4.6-11C33.9,5.8,29.8,4.1,24.7,4.1z"/>
		</g>
	</g>
</g>
</svg>
