<?xml version="1.0" encoding="utf-8"?>
<!-- Generator: Adobe Illustrator 23.0.1, SVG Export Plug-In . SVG Version: 6.00 Build 0)  -->
<svg version="1.1" xmlns="http://www.w3.org/2000/svg" xmlns:xlink="http://www.w3.org/1999/xlink" x="0px" y="0px"
	 viewBox="0 0 64.1 71.8" style="enable-background:new 0 0 64.1 71.8;" xml:space="preserve">
<style type="text/css">
	.st0{fill:url(#SVGID_1_);}
	.st1{display:none;}
	.st2{display:inline;fill:#4CC8EF;}
</style>
<g id="Layer_2">
	<linearGradient id="SVGID_1_" gradientUnits="userSpaceOnUse" x1="2.6124" y1="35.9282" x2="61.6078" y2="35.9282">
		<stop  offset="0" style="stop-color:#4CC8EF"/>
		<stop  offset="1" style="stop-color:#138CBC"/>
	</linearGradient>
	<path class="st0" d="M57.7,62.9c-4.3,11.8-22.3,5.1-17.9-6.7c3.4-9.1,6-30.5-6.5-34.5c-5.1-1.7-8.6,3.7-10.1,7.8
		c-2.1,6.1-1.9,13-0.6,19.2c0.1,0.7,0.3,1.7,0.3,2.1c-0.1,7-11,8-12.8,0.6c-1.8-7.5-2.2-16-3.2-23.7C5.9,21,0.5,13.3,3.5,7
		C5,4,10.4,1.6,13.7,5.5c1,1.3,1.8,2.8,2.4,4.3c4.5-4.4,10.5-7.2,17.1-7.1C46,3,55.6,13.4,59.2,25.1C62.9,37.5,62.2,50.7,57.7,62.9z
		"/>
</g>
<g id="Layer_3" class="st1">
	<path class="st2" d="M60,23.7C56.3,11.3,46,0.2,32.4,0c-7-0.1-13.3,2.9-18.1,7.5c-0.6-1.7-1.4-3.2-2.5-4.6C8.3-1.3,2.6,1.3,1,4.5
		c-3.3,6.7,2.5,14.8,3.4,21.9c1.1,8.1,1.5,17.2,3.4,25.2c1.9,7.9,13.5,6.8,13.6-0.6c0-0.4-0.1-1.5-0.3-2.2
		c-1.4-6.6-1.6-13.9,0.7-20.4c1.5-4.4,5.3-10,10.7-8.3C45.9,24.4,43,47,39.5,56.7c-4.6,12.5,14.4,19.6,19,7.1
		C63.3,50.9,64,36.9,60,23.7z"/>
</g>
</svg>
