<?xml version="1.0" encoding="utf-8"?>
<!-- Generator: Adobe Illustrator 23.0.3, SVG Export Plug-In . SVG Version: 6.00 Build 0)  -->
<svg version="1.1" id="_x32_" xmlns="http://www.w3.org/2000/svg" xmlns:xlink="http://www.w3.org/1999/xlink" x="0px" y="0px"
	 viewBox="0 0 154.6 139" style="enable-background:new 0 0 154.6 139;" xml:space="preserve">
<style type="text/css">
	.st0{fill:#FFFFFF;}
</style>
<path class="st0" d="M77.4,1.4C40,1.4,9.5,31.9,9.5,69.3c0,27.9,16.6,51.7,40.7,62.3c-0.2-4.7,0-10.5,1.2-15.7
	c1.4-5.6,8.7-37,8.7-37S58,74.5,58,68.2c0-10.1,5.9-17.6,13.1-17.6c6.1,0,9.1,4.7,9.1,10.3c0,6.1-4,15.5-6.1,24.1
	c-1.6,7.3,3.5,13.1,10.8,13.1c12.9,0,21.5-16.6,21.5-36.1c0-15-10.1-26-28.3-26c-20.6,0-33.5,15.5-33.5,32.5
	c0,5.9,1.6,10.1,4.4,13.3c1.2,1.4,1.4,2.1,0.9,3.7c-0.2,1.2-1.2,4.2-1.4,5.4c-0.5,1.6-1.9,2.3-3.5,1.6c-9.6-4-13.8-14.3-13.8-26
	c0-19.2,16.2-42.4,48.5-42.4c26,0,43.1,18.7,43.1,38.9c0,26.7-14.7,46.6-36.5,46.6c-7.3,0-14.3-4-16.6-8.4c0,0-4,15.7-4.7,18.7
	c-1.4,5.2-4.2,10.5-6.8,14.5c6.1,1.9,12.6,2.8,19.2,2.8c37.5,0,67.9-30.4,67.9-67.9S114.9,1.4,77.4,1.4"/>
</svg>
