<?xml version="1.0" encoding="utf-8"?>
<!-- Generator: Adobe Illustrator 24.1.0, SVG Export Plug-In . SVG Version: 6.00 Build 0)  -->
<svg version="1.1" id="Layer_1" xmlns="http://www.w3.org/2000/svg" xmlns:xlink="http://www.w3.org/1999/xlink" x="0px" y="0px"
	 viewBox="0 0 54 207.8" style="enable-background:new 0 0 54 207.8;" xml:space="preserve">
<style type="text/css">
	.st0{fill:#333F49;}
	.st1{fill:none;}
	.st2{fill:#FFFFFF;}
	.st3{fill:#0F9CD8;}
	.st4{fill:#CDDC29;}
	.st5{fill:#3DAF49;}
</style>
<g>
	<g>
		<g>
			<path class="st0" d="M11.9,6.5L26.2,2c-2.4-1.3-5.1-2-8-2C8.7,0,1,7.7,1,17.2c0,2.9,0.7,5.6,2,8l2.6-11.8
				C6.3,10.5,9.1,7.4,11.9,6.5z"/>
			<path class="st0" d="M12.7,29c0.1,1.6,0.4,2.9,0.9,4.4c1.8,0.5,2.1,0.7,4.7,0.9c9.5,0.7,17.2-7.7,17.2-17.2c0-1.5-0.3-2.7-0.6-4
				c-2.3-0.9-4.3-1.2-5.4-1.2C20.1,12,12.2,19.2,12.7,29z"/>
		</g>
		<path class="st0" d="M28.6,3.7"/>
		<g>
			<path class="st0" d="M51,16.3L38,4.4c-2-1.8-5.7-2.6-8.3-1.8L12.9,7.9c-2.6,0.8-5.2,3.6-5.8,6.2L3.3,31.3
				c-0.6,2.6,0.6,6.3,2.6,8.1l13,11.9c2,1.8,5.7,2.6,8.3,1.8L44,47.8c2.6-0.8,5.1-3.6,5.7-6.2l3.9-17.3C54.2,21.7,53,18.1,51,16.3z
				 M28.5,45.1c-9.6,0-17.3-7.7-17.3-17.3c0-9.5,7.8-17.3,17.3-17.3c9.6,0,17.3,7.7,17.3,17.3C45.8,37.4,38,45.1,28.5,45.1z"/>
		</g>
	</g>
</g>
<g>
	<path class="st1" d="M18.3,188.6L18.3,188.6L18.3,188.6c-2.2,0-4.3-0.4-6.2-1.1c2.4,6.8,8.8,11.6,16.4,11.6
		c9.6,0,17.3-7.8,17.3-17.3c0-7.4-4.6-13.7-11.1-16.2c0.6,1.8,1,3.7,1,5.7C35.6,180.9,27.9,188.6,18.3,188.6z"/>
	<path class="st2" d="M28.1,157c-2.8-1.9-6.1-3-9.8-3l0,0C21.9,154,25.3,155.1,28.1,157L28.1,157z"/>
	<path class="st2" d="M35.6,171.3c0,9.6-7.7,17.3-17.3,17.3l0,0C27.9,188.6,35.6,180.9,35.6,171.3c0-2-0.3-3.9-0.9-5.7l0,0
		C35.2,167.4,35.6,169.3,35.6,171.3z"/>
	<path class="st3" d="M51,170.2l-13-11.9c-2-1.8-5.7-2.6-8.3-1.8l-1.6,0.5c3,2.1,5.4,5.1,6.6,8.6c6.5,2.5,11.1,8.8,11.1,16.2
		c0,9.6-7.8,17.3-17.3,17.3c-7.6,0-14-4.9-16.4-11.6c-3.2-1.2-5.9-3.4-7.9-6.1l-0.9,3.9c-0.6,2.6,0.6,6.3,2.6,8.1l13,11.9
		c2,1.8,5.7,2.6,8.3,1.8l16.8-5.3c2.6-0.8,5.1-3.6,5.7-6.3l3.9-17.2C54.2,175.6,53,172,51,170.2z"/>
	<path class="st3" d="M34.6,165.6L34.6,165.6c-1.2-3.5-3.5-6.6-6.6-8.6l0,0C31.1,159.1,33.4,162.1,34.6,165.6z"/>
	<path class="st4" d="M1,171.3c0-9.6,7.7-17.3,17.3-17.3l0,0C8.7,154,0.9,161.7,1,171.3c0,3.8,1.2,7.2,3.2,10.1l0,0
		C2.2,178.5,1,175,1,171.3z"/>
	<path class="st4" d="M18.3,188.6c-2.2,0-4.3-0.4-6.2-1.2l0,0C14,188.2,16.1,188.6,18.3,188.6L18.3,188.6z"/>
	<path class="st2" d="M1,171.3c0,3.8,1.2,7.2,3.2,10.1l2.9-13.3c0.6-2.6,3.2-5.4,5.7-6.3L28,157c-2.8-1.9-6.1-3-9.7-3
		C8.7,154,1,161.7,1,171.3z"/>
	<path class="st4" d="M1,171.3c0,3.8,1.2,7.2,3.2,10.1l2.9-13.3c0.6-2.6,3.2-5.4,5.7-6.3L28,157c-2.8-1.9-6.1-3-9.7-3
		C8.7,154,1,161.7,1,171.3z"/>
	<path class="st2" d="M35.6,171.3c0-2-0.4-3.9-1-5.7c-1.9-0.7-4-1.1-6.2-1.1c-9.6,0-17.3,7.8-17.3,17.3c0,2,0.4,3.9,1,5.7
		c1.9,0.7,4,1.2,6.2,1.2C27.8,188.6,35.6,180.9,35.6,171.3z"/>
	<path class="st4" d="M35.6,171.3c0-2-0.4-3.9-1-5.7c-1.9-0.7-4-1.1-6.2-1.1c-9.6,0-17.3,7.8-17.3,17.3c0,2,0.4,3.9,1,5.7
		c1.9,0.7,4,1.2,6.2,1.2C27.8,188.6,35.6,180.9,35.6,171.3z"/>
	<path class="st3" d="M12.1,187.5L12.1,187.5c-3.2-1.2-5.9-3.4-7.9-6.1l0,0C6.2,184.1,8.9,186.3,12.1,187.5z"/>
	<path class="st4" d="M12.1,187.5L12.1,187.5c-3.2-1.2-5.9-3.4-7.9-6.1l0,0C6.2,184.1,8.9,186.3,12.1,187.5z"/>
	<path class="st3" d="M28.5,164.5c2.2,0,4.2,0.4,6.2,1.1c-1.2-3.5-3.6-6.6-6.6-8.6l-15.2,4.8c-2.6,0.8-5.1,3.6-5.7,6.3l-3,13.2
		c2,2.7,4.7,4.9,7.9,6.1c-0.6-1.8-1-3.7-1-5.7C11.1,172.2,18.9,164.5,28.5,164.5z"/>
	<path class="st5" d="M28.5,164.5c2.2,0,4.2,0.4,6.2,1.1c-1.2-3.5-3.6-6.6-6.6-8.6l-15.2,4.8c-2.6,0.8-5.1,3.6-5.7,6.3l-3,13.2
		c2,2.7,4.7,4.9,7.9,6.1c-0.6-1.8-1-3.7-1-5.7C11.1,172.2,18.9,164.5,28.5,164.5z"/>
</g>
</svg>
