<?xml version="1.0" encoding="utf-8"?>
<!-- Generator: Adobe Illustrator 23.0.0, SVG Export Plug-In . SVG Version: 6.00 Build 0)  -->
<svg version="1.1" id="_x32_" xmlns="http://www.w3.org/2000/svg" xmlns:xlink="http://www.w3.org/1999/xlink" x="0px" y="0px"
	 viewBox="0 0 154.58 139.01" style="enable-background:new 0 0 154.58 139.01;" xml:space="preserve">
<style type="text/css">
	.st0{fill:url(#SVGID_1_);}
</style>
<linearGradient id="SVGID_1_" gradientUnits="userSpaceOnUse" x1="77.2923" y1="136.6519" x2="77.2923" y2="23.2241">
	<stop  offset="0" style="stop-color:#00C2FF"/>
	<stop  offset="0.6447" style="stop-color:#00AFFC"/>
	<stop  offset="1" style="stop-color:#00A3FA"/>
</linearGradient>
<path class="st0" d="M154.58,36.6c0,0-6.98,3.23-15.83,4.43c0,0,10.72-8.68,11.57-15.83c0,0-7.32,5.28-18.22,6.98
	c0,0-10.04-12.43-28.76-8c-18.72,4.42-22.64,25.36-20.42,33.7c0,0-32.51,0.51-59.06-29.61c-0.91,2.5-2.18,6.57-2.77,8.48
	c-1.32,4.26-2.21,8.65-2.61,13.09c-0.8,8.74,0.21,17.65,3.02,25.97c2.8,8.26,7.37,15.91,13.26,22.34c2.98,3.25,6.3,6.25,9.91,8.78
	c3.31,2.32,7.99,6.06,12.3,5.01c-7.51,1.83-14.76,4.5-22.37,6.09c-11.26,2.36-23.14,1.67-34.62,0.05c0,0,39.64,24.61,74.41,17.19
	c1.66-0.35,3.34-0.77,5.03-1.24c22.04-6.7,41.1-20.99,51.66-41.72c0.7-1.34,1.38-2.74,2.03-4.18c4.58-10.1,7.87-22.57,7.15-37.05
	C140.29,51.07,151.18,43.41,154.58,36.6z"/>
</svg>
