<?xml version="1.0" encoding="utf-8"?>
<!-- Generator: Adobe Illustrator 23.0.3, SVG Export Plug-In . SVG Version: 6.00 Build 0)  -->
<svg version="1.1" id="_x32_" xmlns="http://www.w3.org/2000/svg" xmlns:xlink="http://www.w3.org/1999/xlink" x="0px" y="0px"
	 viewBox="0 0 154.6 139" style="enable-background:new 0 0 154.6 139;" xml:space="preserve">
<style type="text/css">
	.st0{fill:#FFFFFF;}
</style>
<path class="st0" d="M154.6,36.6c0,0-7,3.2-15.8,4.4c0,0,10.7-8.7,11.6-15.8c0,0-7.3,5.3-18.2,7c0,0-10-12.4-28.8-8
	C84.7,28.6,80.8,49.6,83,57.9c0,0-32.5,0.5-59.1-29.6c-0.9,2.5-2.2,6.6-2.8,8.5c-1.3,4.3-2.2,8.7-2.6,13.1c-0.8,8.7,0.2,17.6,3,26
	c2.8,8.3,7.4,15.9,13.3,22.3c3,3.2,6.3,6.2,9.9,8.8c3.3,2.3,8,6.1,12.3,5c-7.5,1.8-14.8,4.5-22.4,6.1c-11.3,2.4-23.1,1.7-34.6,0.1
	c0,0,39.6,24.6,74.4,17.2c1.7-0.4,3.3-0.8,5-1.2c22-6.7,41.1-21,51.7-41.7c0.7-1.3,1.4-2.7,2-4.2c4.6-10.1,7.9-22.6,7.1-37
	C140.3,51.1,151.2,43.4,154.6,36.6z"/>
</svg>
